<?xml version="1.0" encoding="UTF-8"?>
<svg width="533.3333333333333" height="533.3333333333333" xmlns="http://www.w3.org/2000/svg" xmlns:svg="http://www.w3.org/2000/svg">

 <g>
  <title>Layer 1</title>
  <path d="m381.25,185.07599c0,-97.38215 -65.75818,-176.32598 -146.875,-176.32598c-81.11682,0 -146.875,78.94383 -146.875,176.32598c0,97.38217 65.75818,176.32599 146.875,176.32599c81.11682,0 146.875,-78.94382 146.875,-176.32599l-146.875,0l146.875,0z" id="path1044" stroke-width="1pt" fill-rule="evenodd" fill="#ff0000"/>
  <path stroke="#ff7f00" d="m227.5,360.75134c0,0.65064 0,7.15714 0,8.45844c0,1.3013 3.125,-3.25327 -3.125,5.2052c-6.25,8.45843 -11.875,7.15713 -6.875,10.41037c5,3.25326 6.25,0.65066 10,0c3.75,-0.65064 1.875,2.6026 6.25,3.25326c4.375,0.65064 5.625,0.65064 8.75,-1.3013c3.125,-1.95196 -1.25,-3.9039 5.625,-1.95196c6.875,1.95196 8.125,5.85586 10.625,3.9039c2.5,-1.95194 -1.875,0 -1.875,-4.55454c0,-4.55456 -2.5,-9.1091 -3.75,-9.75973c-1.25,-0.65067 -6.25,-1.3013 -6.25,-7.15717c0,-5.85583 -1.25,-7.15713 -1.25,-7.15713c0,0 -15,1.95193 -18.125,0.65066z" id="path1046" stroke-width="1pt" fill-rule="evenodd" fill="#ff0000"/>
  <path d="m246.25,365l-18.75,0l20,6.25l-21.25,-2.5c0,0 -8.25,13.5 1.25,45c9.5,31.5 -0.75,11.25 12.5,37.5c13.25,26.25 -15.75,151.5 8.75,150.5" id="path1047" stroke-width="3.125" stroke="black" fill-rule="evenodd" fill="none"/>
  <path d="m137.5,63.75c0,0 -13.75,31.25 -13.75,47.5c0,16.25 -1.25,18.75 0,18.75c1.25,0 26.25,0 26.25,0c0,0 0,-35 5,-46.25c5,-11.25 10,-20 10,-20c0,0 -27.5,-1.25 -27.5,0z" id="path1053" stroke-width="1pt" fill-rule="evenodd" fill="#ffffff"/>
  <path d="m175,63.75c0,0 -13.75,31.25 -13.75,47.5c0,16.25 -1.25,18.75 0,18.75c1.25,0 26.25,0 26.25,0c0,0 0,-35 5,-46.25c5,-11.25 10,-20 10,-20c0,0 -27.5,-1.25 -27.5,0z" id="path1054" stroke-width="1pt" fill-rule="evenodd" fill="#ffffff"/>
  <path d="m126.02593,137.18797c-2.85019,0 -1.68865,9.33358 -1.68865,16.46196c0.71283,7.12839 0.88349,12.59992 2.13841,12.59992c1.25494,0 25.6408,-2.49997 22.78958,-0.62509c-2.13739,-9.37482 -2.85022,-8.47818 -2.10629,-14.663c0.74294,-6.81035 1.48686,-13.77379 1.48686,-13.77379c0,0 -23.33172,-0.54834 -22.61992,0l0.00001,0z" id="path1055" stroke-width="1pt" fill-rule="evenodd" fill="#ffffff"/>
  <path d="m162.90093,134.68797c-2.85019,0 -1.68865,9.33358 -1.68865,16.46196c0.71283,7.12839 0.88349,12.59992 2.13841,12.59992c1.25493,0 25.6408,-2.49997 22.78958,-0.62509c-2.13739,-9.37482 -2.85022,-8.47818 -2.10629,-14.663c0.74294,-6.81035 1.48686,-13.77379 1.48686,-13.77379c0,0 -23.33172,-0.54834 -22.61992,0l0.00001,0z" id="path1056" stroke-width="1pt" fill-rule="evenodd" fill="#ffffff"/>
 </g>
</svg>